<svg width="246" height="31" viewBox="0 0 246 31" fill="none" xmlns="http://www.w3.org/2000/svg">
<path d="M20.2305 19.4727L25.8359 21.25C24.9766 24.375 23.5443 26.6992 21.5391 28.2227C19.5469 29.7331 17.0143 30.4883 13.9414 30.4883C10.1393 30.4883 7.01432 29.1927 4.56641 26.6016C2.11849 23.9974 0.894531 20.4427 0.894531 15.9375C0.894531 11.1719 2.125 7.47396 4.58594 4.84375C7.04688 2.20052 10.2826 0.878906 14.293 0.878906C17.7956 0.878906 20.6406 1.91406 22.8281 3.98438C24.1302 5.20833 25.1068 6.96615 25.7578 9.25781L20.0352 10.625C19.6966 9.14062 18.987 7.96875 17.9062 7.10938C16.8385 6.25 15.5365 5.82031 14 5.82031C11.8776 5.82031 10.1523 6.58203 8.82422 8.10547C7.50911 9.62891 6.85156 12.0964 6.85156 15.5078C6.85156 19.1276 7.5026 21.7057 8.80469 23.2422C10.1068 24.7786 11.7995 25.5469 13.8828 25.5469C15.4193 25.5469 16.7409 25.0586 17.8477 24.082C18.9544 23.1055 19.7487 21.569 20.2305 19.4727ZM29.5078 19.3359C29.5078 17.513 29.957 15.7487 30.8555 14.043C31.7539 12.3372 33.0234 11.0352 34.6641 10.1367C36.3177 9.23828 38.1602 8.78906 40.1914 8.78906C43.3294 8.78906 45.901 9.8112 47.9062 11.8555C49.9115 13.8867 50.9141 16.4583 50.9141 19.5703C50.9141 22.7083 49.8984 25.3125 47.8672 27.3828C45.849 29.4401 43.3034 30.4688 40.2305 30.4688C38.3294 30.4688 36.513 30.0391 34.7812 29.1797C33.0625 28.3203 31.7539 27.0638 30.8555 25.4102C29.957 23.7435 29.5078 21.7188 29.5078 19.3359ZM35.1328 19.6289C35.1328 21.6862 35.6211 23.2617 36.5977 24.3555C37.5742 25.4492 38.7786 25.9961 40.2109 25.9961C41.6432 25.9961 42.8411 25.4492 43.8047 24.3555C44.7812 23.2617 45.2695 21.6732 45.2695 19.5898C45.2695 17.5586 44.7812 15.9961 43.8047 14.9023C42.8411 13.8086 41.6432 13.2617 40.2109 13.2617C38.7786 13.2617 37.5742 13.8086 36.5977 14.9023C35.6211 15.9961 35.1328 17.5716 35.1328 19.6289ZM54.8203 9.25781H59.8789V12.0898C61.6888 9.88932 63.8438 8.78906 66.3438 8.78906C67.6719 8.78906 68.8242 9.0625 69.8008 9.60938C70.7773 10.1562 71.5781 10.9831 72.2031 12.0898C73.1146 10.9831 74.0977 10.1562 75.1523 9.60938C76.207 9.0625 77.3333 8.78906 78.5312 8.78906C80.0547 8.78906 81.3438 9.10156 82.3984 9.72656C83.4531 10.3385 84.2409 11.2435 84.7617 12.4414C85.1393 13.3268 85.3281 14.7591 85.3281 16.7383V30H79.8398V18.1445C79.8398 16.0872 79.651 14.7591 79.2734 14.1602C78.7656 13.3789 77.9844 12.9883 76.9297 12.9883C76.1615 12.9883 75.4388 13.2227 74.7617 13.6914C74.0846 14.1602 73.5964 14.8503 73.2969 15.7617C72.9974 16.6602 72.8477 18.0859 72.8477 20.0391V30H67.3594V18.6328C67.3594 16.6146 67.2617 15.3125 67.0664 14.7266C66.8711 14.1406 66.5651 13.7044 66.1484 13.418C65.7448 13.1315 65.1914 12.9883 64.4883 12.9883C63.6419 12.9883 62.8802 13.2161 62.2031 13.6719C61.526 14.1276 61.0378 14.7852 60.7383 15.6445C60.4518 16.5039 60.3086 17.9297 60.3086 19.9219V30H54.8203V9.25781ZM88.4141 9.25781H91.4609V7.69531C91.4609 5.95052 91.6432 4.64844 92.0078 3.78906C92.3854 2.92969 93.069 2.23307 94.0586 1.69922C95.0612 1.15234 96.3242 0.878906 97.8477 0.878906C99.4102 0.878906 100.94 1.11328 102.438 1.58203L101.695 5.41016C100.823 5.20182 99.9831 5.09766 99.1758 5.09766C98.3815 5.09766 97.8086 5.28646 97.457 5.66406C97.1185 6.02865 96.9492 6.73828 96.9492 7.79297V9.25781H101.051V13.5742H96.9492V30H91.4609V13.5742H88.4141V9.25781ZM102.867 19.3359C102.867 17.513 103.316 15.7487 104.215 14.043C105.113 12.3372 106.383 11.0352 108.023 10.1367C109.677 9.23828 111.52 8.78906 113.551 8.78906C116.689 8.78906 119.26 9.8112 121.266 11.8555C123.271 13.8867 124.273 16.4583 124.273 19.5703C124.273 22.7083 123.258 25.3125 121.227 27.3828C119.208 29.4401 116.663 30.4688 113.59 30.4688C111.689 30.4688 109.872 30.0391 108.141 29.1797C106.422 28.3203 105.113 27.0638 104.215 25.4102C103.316 23.7435 102.867 21.7188 102.867 19.3359ZM108.492 19.6289C108.492 21.6862 108.98 23.2617 109.957 24.3555C110.934 25.4492 112.138 25.9961 113.57 25.9961C115.003 25.9961 116.201 25.4492 117.164 24.3555C118.141 23.2617 118.629 21.6732 118.629 19.5898C118.629 17.5586 118.141 15.9961 117.164 14.9023C116.201 13.8086 115.003 13.2617 113.57 13.2617C112.138 13.2617 110.934 13.8086 109.957 14.9023C108.98 15.9961 108.492 17.5716 108.492 19.6289ZM133.844 30H128.355V9.25781H133.453V12.207C134.326 10.8138 135.107 9.89583 135.797 9.45312C136.5 9.01042 137.294 8.78906 138.18 8.78906C139.43 8.78906 140.634 9.13411 141.793 9.82422L140.094 14.6094C139.169 14.0104 138.31 13.7109 137.516 13.7109C136.747 13.7109 136.096 13.9258 135.562 14.3555C135.029 14.7721 134.605 15.5339 134.293 16.6406C133.993 17.7474 133.844 20.0651 133.844 23.5938V30ZM153.688 9.25781V13.6328H149.938V21.9922C149.938 23.6849 149.97 24.6745 150.035 24.9609C150.113 25.2344 150.276 25.4622 150.523 25.6445C150.784 25.8268 151.096 25.918 151.461 25.918C151.969 25.918 152.704 25.7422 153.668 25.3906L154.137 29.6484C152.861 30.1953 151.415 30.4688 149.801 30.4688C148.811 30.4688 147.919 30.306 147.125 29.9805C146.331 29.6419 145.745 29.2122 145.367 28.6914C145.003 28.1576 144.749 27.4414 144.605 26.543C144.488 25.9049 144.43 24.6159 144.43 22.6758V13.6328H141.91V9.25781H144.43V5.13672L149.938 1.93359V9.25781H153.688ZM182.867 26.5039L179.547 30.7422C177.919 29.9479 176.357 28.8542 174.859 27.4609C173.701 28.5026 172.47 29.2708 171.168 29.7656C169.866 30.2604 168.316 30.5078 166.52 30.5078C162.952 30.5078 160.27 29.5052 158.473 27.5C157.079 25.9505 156.383 24.1667 156.383 22.1484C156.383 20.3125 156.93 18.6654 158.023 17.207C159.117 15.7357 160.751 14.4596 162.926 13.3789C161.949 12.2201 161.214 11.1198 160.719 10.0781C160.224 9.02344 159.977 8.02734 159.977 7.08984C159.977 5.35807 160.667 3.89323 162.047 2.69531C163.44 1.48438 165.419 0.878906 167.984 0.878906C170.458 0.878906 172.392 1.51042 173.785 2.77344C175.178 4.03646 175.875 5.57943 175.875 7.40234C175.875 8.5612 175.53 9.66146 174.84 10.7031C174.15 11.7448 172.757 12.9232 170.66 14.2383L174.645 19.4922C175.113 18.6589 175.517 17.5716 175.855 16.2305L180.816 17.3633C180.322 19.1211 179.892 20.4102 179.527 21.2305C179.163 22.0378 178.772 22.7148 178.355 23.2617C178.967 23.8346 179.755 24.4661 180.719 25.1562C181.695 25.8333 182.411 26.2826 182.867 26.5039ZM167.926 10.9375L169.41 9.80469C170.504 8.95833 171.051 8.11849 171.051 7.28516C171.051 6.58203 170.784 5.98307 170.25 5.48828C169.729 4.99349 169.02 4.74609 168.121 4.74609C167.249 4.74609 166.565 4.96745 166.07 5.41016C165.576 5.83984 165.328 6.34115 165.328 6.91406C165.328 7.59115 165.745 8.41146 166.578 9.375L167.926 10.9375ZM165.777 16.8945C164.514 17.5326 163.57 18.3008 162.945 19.1992C162.32 20.0977 162.008 21.0156 162.008 21.9531C162.008 23.138 162.392 24.1081 163.16 24.8633C163.941 25.6055 164.983 25.9766 166.285 25.9766C167.145 25.9766 167.971 25.8073 168.766 25.4688C169.56 25.1302 170.426 24.5703 171.363 23.7891L165.777 16.8945ZM204.762 19.4727L210.367 21.25C209.508 24.375 208.076 26.6992 206.07 28.2227C204.078 29.7331 201.546 30.4883 198.473 30.4883C194.671 30.4883 191.546 29.1927 189.098 26.6016C186.65 23.9974 185.426 20.4427 185.426 15.9375C185.426 11.1719 186.656 7.47396 189.117 4.84375C191.578 2.20052 194.814 0.878906 198.824 0.878906C202.327 0.878906 205.172 1.91406 207.359 3.98438C208.661 5.20833 209.638 6.96615 210.289 9.25781L204.566 10.625C204.228 9.14062 203.518 7.96875 202.438 7.10938C201.37 6.25 200.068 5.82031 198.531 5.82031C196.409 5.82031 194.684 6.58203 193.355 8.10547C192.04 9.62891 191.383 12.0964 191.383 15.5078C191.383 19.1276 192.034 21.7057 193.336 23.2422C194.638 24.7786 196.331 25.5469 198.414 25.5469C199.951 25.5469 201.272 25.0586 202.379 24.082C203.486 23.1055 204.28 21.569 204.762 19.4727ZM214.039 19.3359C214.039 17.513 214.488 15.7487 215.387 14.043C216.285 12.3372 217.555 11.0352 219.195 10.1367C220.849 9.23828 222.691 8.78906 224.723 8.78906C227.861 8.78906 230.432 9.8112 232.438 11.8555C234.443 13.8867 235.445 16.4583 235.445 19.5703C235.445 22.7083 234.43 25.3125 232.398 27.3828C230.38 29.4401 227.835 30.4688 224.762 30.4688C222.861 30.4688 221.044 30.0391 219.312 29.1797C217.594 28.3203 216.285 27.0638 215.387 25.4102C214.488 23.7435 214.039 21.7188 214.039 19.3359ZM219.664 19.6289C219.664 21.6862 220.152 23.2617 221.129 24.3555C222.105 25.4492 223.31 25.9961 224.742 25.9961C226.174 25.9961 227.372 25.4492 228.336 24.3555C229.312 23.2617 229.801 21.6732 229.801 19.5898C229.801 17.5586 229.312 15.9961 228.336 14.9023C227.372 13.8086 226.174 13.2617 224.742 13.2617C223.31 13.2617 222.105 13.8086 221.129 14.9023C220.152 15.9961 219.664 17.5716 219.664 19.6289ZM239.762 30V24.5117H245.25V30H239.762Z" fill="white"/>
</svg>
